<mxfile host="app.diagrams.net" agent="Mozilla/5.0 (Windows NT 10.0; Win64; x64) AppleWebKit/537.36 (KHTML, like Gecko) Chrome/127.0.0.0 Safari/537.36" version="24.7.12">
  <diagram name="PÃ¡gina-1" id="ujGo8nRJIDXq_h9ByG9u">
    <mxGraphModel dx="1323" dy="1105" grid="1" gridSize="10" guides="1" tooltips="1" connect="1" arrows="1" fold="1" page="1" pageScale="1" pageWidth="1169" pageHeight="827" math="0" shadow="0">
      <root>
        <mxCell id="0" />
        <mxCell id="1" parent="0" />
        <mxCell id="kwSnkxbTyY6jpW13EwU1-3" value="CallCenter_Prod us-east-1" style="sketch=0;outlineConnect=0;gradientColor=none;html=1;whiteSpace=wrap;fontSize=12;fontStyle=0;shape=mxgraph.aws4.group;grIcon=mxgraph.aws4.group_region;strokeColor=#879196;fillColor=none;verticalAlign=top;align=left;spacingLeft=30;fontColor=#879196;dashed=1;" vertex="1" parent="1">
          <mxGeometry x="860" y="80" width="190" height="190" as="geometry" />
        </mxCell>
        <mxCell id="kwSnkxbTyY6jpW13EwU1-14" style="edgeStyle=orthogonalEdgeStyle;rounded=0;orthogonalLoop=1;jettySize=auto;html=1;" edge="1" parent="1" source="kwSnkxbTyY6jpW13EwU1-4" target="kwSnkxbTyY6jpW13EwU1-12">
          <mxGeometry relative="1" as="geometry">
            <Array as="points">
              <mxPoint x="830" y="395" />
              <mxPoint x="830" y="250" />
            </Array>
          </mxGeometry>
        </mxCell>
        <mxCell id="kwSnkxbTyY6jpW13EwU1-4" value="CallCenter_Prod us-west-1" style="sketch=0;outlineConnect=0;gradientColor=none;html=1;whiteSpace=wrap;fontSize=12;fontStyle=0;shape=mxgraph.aws4.group;grIcon=mxgraph.aws4.group_region;strokeColor=#879196;fillColor=none;verticalAlign=top;align=left;spacingLeft=30;fontColor=#879196;dashed=1;" vertex="1" parent="1">
          <mxGeometry x="860" y="300" width="190" height="190" as="geometry" />
        </mxCell>
        <mxCell id="kwSnkxbTyY6jpW13EwU1-5" value="Lambda x" style="outlineConnect=0;dashed=0;verticalLabelPosition=bottom;verticalAlign=top;align=center;html=1;shape=mxgraph.aws3.lambda;fillColor=#F58534;gradientColor=none;" vertex="1" parent="1">
          <mxGeometry x="935" y="140" width="40" height="41" as="geometry" />
        </mxCell>
        <mxCell id="kwSnkxbTyY6jpW13EwU1-6" value="Lambda x" style="outlineConnect=0;dashed=0;verticalLabelPosition=bottom;verticalAlign=top;align=center;html=1;shape=mxgraph.aws3.lambda;fillColor=#F58534;gradientColor=none;" vertex="1" parent="1">
          <mxGeometry x="930" y="360" width="40" height="41" as="geometry" />
        </mxCell>
        <mxCell id="kwSnkxbTyY6jpW13EwU1-8" value="Genesys us-east-1" style="sketch=0;outlineConnect=0;gradientColor=none;html=1;whiteSpace=wrap;fontSize=12;fontStyle=0;shape=mxgraph.aws4.group;grIcon=mxgraph.aws4.group_region;strokeColor=#879196;fillColor=none;verticalAlign=top;align=left;spacingLeft=30;fontColor=#879196;dashed=1;" vertex="1" parent="1">
          <mxGeometry x="300" y="65.5" width="410" height="190" as="geometry" />
        </mxCell>
        <mxCell id="kwSnkxbTyY6jpW13EwU1-15" style="edgeStyle=orthogonalEdgeStyle;rounded=0;orthogonalLoop=1;jettySize=auto;html=1;" edge="1" parent="1" source="kwSnkxbTyY6jpW13EwU1-7" target="kwSnkxbTyY6jpW13EwU1-12">
          <mxGeometry relative="1" as="geometry" />
        </mxCell>
        <mxCell id="kwSnkxbTyY6jpW13EwU1-20" style="edgeStyle=orthogonalEdgeStyle;rounded=0;orthogonalLoop=1;jettySize=auto;html=1;entryX=1;entryY=0.5;entryDx=0;entryDy=0;" edge="1" parent="1" source="kwSnkxbTyY6jpW13EwU1-7" target="kwSnkxbTyY6jpW13EwU1-18">
          <mxGeometry relative="1" as="geometry" />
        </mxCell>
        <mxCell id="kwSnkxbTyY6jpW13EwU1-21" value="N DActions" style="edgeLabel;html=1;align=center;verticalAlign=middle;resizable=0;points=[];" vertex="1" connectable="0" parent="kwSnkxbTyY6jpW13EwU1-20">
          <mxGeometry x="0.0857" y="2" relative="1" as="geometry">
            <mxPoint as="offset" />
          </mxGeometry>
        </mxCell>
        <mxCell id="kwSnkxbTyY6jpW13EwU1-7" value="DataAction" style="html=1;dashed=0;whiteSpace=wrap;shape=mxgraph.dfd.start" vertex="1" parent="1">
          <mxGeometry x="560" y="160" width="80" height="30" as="geometry" />
        </mxCell>
        <mxCell id="kwSnkxbTyY6jpW13EwU1-10" value="AWS CallCenter_Prod" style="points=[[0,0],[0.25,0],[0.5,0],[0.75,0],[1,0],[1,0.25],[1,0.5],[1,0.75],[1,1],[0.75,1],[0.5,1],[0.25,1],[0,1],[0,0.75],[0,0.5],[0,0.25]];outlineConnect=0;gradientColor=none;html=1;whiteSpace=wrap;fontSize=12;fontStyle=0;container=1;pointerEvents=0;collapsible=0;recursiveResize=0;shape=mxgraph.aws4.group;grIcon=mxgraph.aws4.group_region;strokeColor=#00A4A6;fillColor=none;verticalAlign=top;align=left;spacingLeft=30;fontColor=#147EBA;dashed=1;" vertex="1" parent="1">
          <mxGeometry x="760" y="50" width="310" height="459" as="geometry" />
        </mxCell>
        <mxCell id="kwSnkxbTyY6jpW13EwU1-12" value="IAM" style="outlineConnect=0;dashed=0;verticalLabelPosition=bottom;verticalAlign=top;align=center;html=1;shape=mxgraph.aws3.iam;fillColor=#759C3E;gradientColor=none;" vertex="1" parent="kwSnkxbTyY6jpW13EwU1-10">
          <mxGeometry x="20" y="179" width="30" height="41" as="geometry" />
        </mxCell>
        <mxCell id="kwSnkxbTyY6jpW13EwU1-11" value="Genesys us-west-1" style="sketch=0;outlineConnect=0;gradientColor=none;html=1;whiteSpace=wrap;fontSize=12;fontStyle=0;shape=mxgraph.aws4.group;grIcon=mxgraph.aws4.group_region;strokeColor=#879196;fillColor=none;verticalAlign=top;align=left;spacingLeft=30;fontColor=#879196;dashed=1;" vertex="1" parent="1">
          <mxGeometry x="300" y="285.5" width="410" height="190" as="geometry" />
        </mxCell>
        <mxCell id="kwSnkxbTyY6jpW13EwU1-13" style="edgeStyle=orthogonalEdgeStyle;rounded=0;orthogonalLoop=1;jettySize=auto;html=1;entryX=0.92;entryY=0.5;entryDx=0;entryDy=0;entryPerimeter=0;" edge="1" parent="1" source="kwSnkxbTyY6jpW13EwU1-3" target="kwSnkxbTyY6jpW13EwU1-12">
          <mxGeometry relative="1" as="geometry" />
        </mxCell>
        <mxCell id="kwSnkxbTyY6jpW13EwU1-24" style="edgeStyle=orthogonalEdgeStyle;rounded=0;orthogonalLoop=1;jettySize=auto;html=1;entryX=1;entryY=0.5;entryDx=0;entryDy=0;" edge="1" parent="1" source="kwSnkxbTyY6jpW13EwU1-16" target="kwSnkxbTyY6jpW13EwU1-23">
          <mxGeometry relative="1" as="geometry" />
        </mxCell>
        <mxCell id="kwSnkxbTyY6jpW13EwU1-25" value="N DataActions" style="edgeLabel;html=1;align=center;verticalAlign=middle;resizable=0;points=[];" vertex="1" connectable="0" parent="kwSnkxbTyY6jpW13EwU1-24">
          <mxGeometry y="1" relative="1" as="geometry">
            <mxPoint as="offset" />
          </mxGeometry>
        </mxCell>
        <mxCell id="kwSnkxbTyY6jpW13EwU1-16" value="DataAction" style="html=1;dashed=0;whiteSpace=wrap;shape=mxgraph.dfd.start" vertex="1" parent="1">
          <mxGeometry x="560" y="360" width="80" height="30" as="geometry" />
        </mxCell>
        <mxCell id="kwSnkxbTyY6jpW13EwU1-17" style="edgeStyle=orthogonalEdgeStyle;rounded=0;orthogonalLoop=1;jettySize=auto;html=1;entryX=0.5;entryY=1;entryDx=0;entryDy=0;entryPerimeter=0;" edge="1" parent="1" source="kwSnkxbTyY6jpW13EwU1-16" target="kwSnkxbTyY6jpW13EwU1-12">
          <mxGeometry relative="1" as="geometry" />
        </mxCell>
        <mxCell id="kwSnkxbTyY6jpW13EwU1-18" value="IVR" style="shape=process;whiteSpace=wrap;html=1;backgroundOutline=1;" vertex="1" parent="1">
          <mxGeometry x="355" y="157.5" width="90" height="35" as="geometry" />
        </mxCell>
        <mxCell id="kwSnkxbTyY6jpW13EwU1-32" style="edgeStyle=orthogonalEdgeStyle;rounded=0;orthogonalLoop=1;jettySize=auto;html=1;" edge="1" parent="1" source="kwSnkxbTyY6jpW13EwU1-23" target="kwSnkxbTyY6jpW13EwU1-30">
          <mxGeometry relative="1" as="geometry" />
        </mxCell>
        <mxCell id="kwSnkxbTyY6jpW13EwU1-23" value="IVR" style="shape=process;whiteSpace=wrap;html=1;backgroundOutline=1;" vertex="1" parent="1">
          <mxGeometry x="360" y="357.5" width="90" height="35" as="geometry" />
        </mxCell>
        <mxCell id="kwSnkxbTyY6jpW13EwU1-27" value="SandBox Oregon" style="sketch=0;outlineConnect=0;gradientColor=none;html=1;whiteSpace=wrap;fontSize=12;fontStyle=0;shape=mxgraph.aws4.group;grIcon=mxgraph.aws4.group_region;strokeColor=#B6BABF;fillColor=none;verticalAlign=top;align=left;spacingLeft=30;fontColor=#B6BABF;dashed=1;" vertex="1" parent="1">
          <mxGeometry x="80" y="65.5" width="190" height="414.5" as="geometry" />
        </mxCell>
        <mxCell id="kwSnkxbTyY6jpW13EwU1-28" value="Actor" style="shape=umlActor;verticalLabelPosition=bottom;verticalAlign=top;html=1;outlineConnect=0;" vertex="1" parent="1">
          <mxGeometry x="110" y="210" width="30" height="60" as="geometry" />
        </mxCell>
        <mxCell id="kwSnkxbTyY6jpW13EwU1-30" value="Case" style="shape=parallelogram;perimeter=parallelogramPerimeter;whiteSpace=wrap;html=1;fixedSize=1;" vertex="1" parent="1">
          <mxGeometry x="170" y="240" width="70" height="30" as="geometry" />
        </mxCell>
      </root>
    </mxGraphModel>
  </diagram>
</mxfile>
